<svg width="43" height="42" viewBox="0 0 43 42" fill="none" xmlns="http://www.w3.org/2000/svg">
<path d="M14.7812 34.125V37.4062C14.7812 37.7685 15.0822 38.0625 15.4531 38.0625H18.1406C18.3188 38.0625 18.4897 37.9934 18.6157 37.8703C18.7417 37.7472 18.8125 37.5803 18.8125 37.4062V34.125H20.1562V37.4062C20.1562 37.7685 20.4572 38.0625 20.8281 38.0625H23.5156C23.6938 38.0625 23.8647 37.9934 23.9907 37.8703C24.1167 37.7472 24.1875 37.5803 24.1875 37.4062V34.125H24.4132C29.7667 34.125 33.5937 31.4134 33.5937 26.7225C33.5937 22.7798 30.8874 20.6246 27.7189 20.3175V20.0865C30.3257 19.4513 32.2419 17.5297 32.2419 14.3377C32.2419 10.3162 29.1513 7.875 24.4347 7.875H24.1875V4.59375C24.1875 4.4197 24.1167 4.25278 23.9907 4.12971C23.8647 4.00664 23.6938 3.9375 23.5156 3.9375H20.8281C20.6499 3.9375 20.479 4.00664 20.353 4.12971C20.227 4.25278 20.1562 4.4197 20.1562 4.59375V7.875H18.6163V4.59375C18.6163 4.4197 18.5455 4.25278 18.4195 4.12971C18.2935 4.00664 18.1226 3.9375 17.9444 3.9375H15.4531C15.2749 3.9375 15.104 4.00664 14.978 4.12971C14.852 4.25278 14.7812 4.4197 14.7812 4.59375V7.875L9.41162 7.90387C9.23343 7.90387 9.06253 7.97302 8.93653 8.09609C8.81053 8.21916 8.73975 8.38608 8.73975 8.56012V11.1562C8.73975 11.5159 9.03537 11.8125 9.40625 11.8125L11.4353 11.7994C11.9676 11.8028 12.4768 12.0118 12.8519 12.3806C13.227 12.7495 13.4375 13.2482 13.4375 13.7681V28.2188C13.4375 28.7409 13.2251 29.2417 12.8471 29.6109C12.4691 29.9801 11.9564 30.1875 11.4219 30.1875L9.41162 30.2164C9.23343 30.2164 9.06253 30.2855 8.93653 30.4086C8.81053 30.5317 8.73975 30.6986 8.73975 30.8726V33.4976C8.73975 33.8599 9.04075 34.1539 9.41162 34.1539L14.7812 34.125ZM18.6163 11.7784H23.2361C25.671 11.7784 27.1007 13.0856 27.1007 15.2224C27.1007 17.5087 25.5554 18.7976 22.0563 18.7976H18.6163V11.7784ZM18.6163 22.4123H23.5613C26.617 22.4123 28.2806 23.9348 28.2806 26.4128C28.2806 28.9144 26.5982 30.219 22.4809 30.219H18.6163V22.4149V22.4123Z" fill="#FF00F5"/>
</svg>
