<svg width="43" height="42" viewBox="0 0 43 42" fill="none" xmlns="http://www.w3.org/2000/svg">
<g clip-path="url(#clip0_1345_234)">
<g clip-path="url(#clip1_1345_234)">
<path d="M21.5 42C33.4147 42 43 32.6376 43 21C43 9.36243 33.4147 0 21.5 0C9.58535 0 0 9.36243 0 21C0 32.6376 9.58535 42 21.5 42Z" fill="#FF00F5"/>
<path d="M27.4123 24.3248C27.4123 21.2624 25.531 20.2124 21.7685 19.7749C19.081 19.4249 18.5435 18.7249 18.5435 17.4998C18.5435 16.2747 19.4395 15.4874 21.231 15.4874C22.8435 15.4874 23.7395 16.0124 24.1873 17.3249C24.277 17.5874 24.5457 17.7623 24.8145 17.7623H26.2476C26.606 17.7623 26.8748 17.4998 26.8748 17.1499V17.0624C26.5164 15.1373 24.9039 13.6499 22.8435 13.4749V11.3749C22.8435 11.0249 22.5748 10.7624 22.127 10.6748H20.7832C20.4248 10.6748 20.156 10.9373 20.0664 11.3749V13.3874C17.3789 13.7374 15.677 15.4874 15.677 17.6749C15.677 20.5624 17.4685 21.6998 21.231 22.1374C23.7395 22.5749 24.5457 23.0999 24.5457 24.4999C24.5457 25.9 23.2914 26.8624 21.5895 26.8624C19.2601 26.8624 18.4539 25.8998 18.1851 24.5873C18.0957 24.2374 17.827 24.0623 17.5582 24.0623H16.0351C15.677 24.0623 15.4082 24.3248 15.4082 24.6749V24.7624C15.7664 26.9498 17.1998 28.5248 20.156 28.9624V31.0624C20.156 31.4123 20.4248 31.6748 20.8726 31.7624H22.2164C22.5748 31.7624 22.8435 31.4999 22.9332 31.0624V28.9624C25.6207 28.5248 27.4123 26.6873 27.4123 24.3248Z" fill="white"/>
<path d="M16.931 33.5124C9.94354 31.0625 6.36014 23.45 8.9582 16.7124C10.3019 13.0374 13.2582 10.2374 16.931 8.92493C17.2894 8.75 17.4685 8.4875 17.4685 8.04986V6.82493C17.4685 6.47486 17.2894 6.21236 16.931 6.125C16.8414 6.125 16.6623 6.125 16.5726 6.21236C8.06229 8.83736 3.40389 17.675 6.09139 25.9874C7.70389 30.8874 11.556 34.6499 16.5726 36.2249C16.931 36.3999 17.2894 36.2249 17.3789 35.8749C17.4685 35.7875 17.4685 35.6999 17.4685 35.525V34.2999C17.4685 34.0374 17.1998 33.6875 16.931 33.5124ZM26.427 6.21236C26.0685 6.03743 25.7101 6.21236 25.6207 6.56243C25.531 6.65 25.531 6.73736 25.531 6.9125V8.13743C25.531 8.4875 25.7998 8.83736 26.0685 9.0125C33.056 11.4624 36.6395 19.0749 34.0414 25.8125C32.6976 29.4875 29.7414 32.2874 26.0685 33.5999C25.7101 33.7749 25.531 34.0374 25.531 34.475V35.6999C25.531 36.05 25.7101 36.3125 26.0685 36.3999C26.1582 36.3999 26.3373 36.3999 26.427 36.3125C34.9373 33.6875 39.5957 24.8499 36.9082 16.5374C35.2957 11.5499 31.3539 7.78736 26.427 6.21236Z" fill="white"/>
</g>
</g>
<defs>
<clipPath id="clip0_1345_234">
<rect width="43" height="42" fill="white"/>
</clipPath>
<clipPath id="clip1_1345_234">
<rect width="43" height="42" fill="white"/>
</clipPath>
</defs>
</svg>
